<svg width="337" height="86" viewBox="0 0 337 86" fill="none" xmlns="http://www.w3.org/2000/svg">
<g clip-path="url(#clip0_1514_2378)">
<path d="M102.3 54.31V49.07C102.32 46.5 102.05 43.94 101.49 41.43C100.68 38.01 99.21 35 96.1 33.05C93.81 31.74 91.23 31.02 88.6 30.96C84.59 30.49 80.58 31.78 77.6 34.5C76.82 35.25 76.13 36.08 75.54 36.98V31.92H62.95V72.49H75.6V50.49C75.6 49.94 75.67 49.4 75.74 48.85C76.22 44.73 78.25 42.49 82.13 42.07C86.01 41.65 88.44 43.14 89.29 47.07C89.57 48.34 89.7 49.63 89.7 50.93V72.55H102.3C102.3 72.55 102.3 60.11 102.3 54.31Z" fill="#2867B1"/>
<path d="M49.58 26.38C45.52 26.37 42.24 23.07 42.25 19.01C42.26 14.95 45.56 11.67 49.62 11.68C53.68 11.69 56.96 14.99 56.95 19.05C56.95 19.06 56.95 19.08 56.95 19.09C56.88 23.12 53.61 26.36 49.58 26.38Z" fill="#2867B1"/>
<path d="M55.93 31.83H43.29V72.49H55.93V31.83Z" fill="#2867B1"/>
<path d="M237.61 12.56H225.72V13.13C225.71 13.23 225.71 13.33 225.72 13.43V28.02V36.02C224.98 35.03 224.09 34.16 223.1 33.42C219.18 30.7 214.75 30.16 210.18 30.73C204.38 31.44 200.18 34.64 197.24 39.6C194.3 44.69 193.23 50.65 194.24 56.44C195.5 64.86 200.97 71.2 209.24 72.95C213.92 73.95 218.4 73.56 222.53 70.95C224.08 69.89 225.51 68.65 226.77 67.26V71.8C226.76 71.88 226.76 71.95 226.77 72.03V72.53H238.46V57.05V28.05V12.56H237.61ZM222.53 60.76C218.37 63.52 211.9 62.76 208.89 59.06C206.53 56.19 206.19 52.82 206.89 49.31C207.35 46.52 209.12 44.11 211.66 42.85C215.66 40.78 221.14 41.58 224.11 44.67C226.11 46.74 226.72 49.31 226.76 52.28C226.67 55.62 225.62 58.7 222.53 60.76Z" fill="#2867B1"/>
<path d="M330.48 9.28H257.96V77.89H330.48V9.28Z" fill="white"/>
<path d="M329.62 0H257.62C253.96 0 250.99 2.97 250.99 6.63V78.64C250.99 82.3 253.95 85.27 257.61 85.28H329.62C333.29 85.28 336.26 82.31 336.26 78.64V6.64C336.26 2.97 333.29 0 329.62 0ZM276.25 72.49H263.67V31.92H276.25V72.49ZM269.92 26.35C265.89 26.32 262.65 23.02 262.68 18.99C262.71 14.96 266.01 11.72 270.04 11.75C274.05 11.78 277.29 15.05 277.28 19.06C277.25 23.1 273.96 26.36 269.92 26.35ZM323.59 72.49H310.99V50.87C310.99 49.57 310.85 48.28 310.58 47.01C309.72 43.1 307.18 41.63 303.42 42.01C299.66 42.39 297.51 44.67 297.02 48.79C296.96 49.34 296.92 49.88 296.88 50.43V72.43H284.24V31.92H296.83V36.98C299.65 32.62 304.74 30.28 309.89 30.98C312.52 31.04 315.1 31.76 317.38 33.07C320.5 35.07 321.97 38.07 322.78 41.45C323.34 43.96 323.61 46.52 323.58 49.09V72.49H323.59Z" fill="#2867B1"/>
<path d="M13.19 60.38L13.18 12.56H0.02L0 72.5H0.02V72.56L37.55 72.5V60.38H13.19Z" fill="#2867B1"/>
<path d="M134.55 50.76L151.19 31.9H135.65C135.65 31.9 122.27 47.35 121.34 48.41V12.62H108.7V72.62H121.33V52.51L134.93 72.56H150.85L134.55 50.76Z" fill="#2867B1"/>
<path d="M190.13 48.21C189.97 46.7 189.66 45.2 189.2 43.75C187.54 38.51 184.45 34.46 179.29 32.21C175.29 30.57 170.9 30.14 166.66 31C160.51 32 155.42 34.88 151.88 40.12C149.1 44.31 147.91 49.35 148.51 54.34C148.9 60.11 151.81 65.41 156.45 68.86C160.44 71.87 165.3 73.5 170.3 73.52C170.3 73.52 172.3 73.52 173.23 73.42C176.49 73.17 179.64 72.19 182.46 70.53C184.81 69.28 186.86 67.54 188.46 65.42L179.55 58.97C179.49 59.07 179.22 59.39 179.15 59.49C177.9 61.25 176.12 62.58 174.08 63.28C173.86 63.36 172.7 63.68 172.64 63.69C169.69 64.34 166.61 63.61 164.28 61.69C161.07 59.01 161.07 56.05 161.07 56.05H190.37C190.37 56.05 190.43 49.97 190.13 48.21ZM161.01 47.42C161.37 43.07 165 39.72 169.37 39.72C174.49 39.72 177.28 43.11 177.55 47.42H161.01Z" fill="#2867B1"/>
</g>
<defs>
<clipPath id="clip0_1514_2378">
<rect width="336.26" height="85.28" fill="white"/>
</clipPath>
</defs>
</svg>
